<?xml version="1.0" encoding="UTF-8" standalone="no"?>
<!DOCTYPE svg PUBLIC "-//W3C//DTD SVG 1.1//EN" "http://www.w3.org/Graphics/SVG/1.1/DTD/svg11.dtd">
<svg width="100%" height="100%" viewBox="0 0 65 111" version="1.1" xmlns="http://www.w3.org/2000/svg" xmlns:xlink="http://www.w3.org/1999/xlink" xml:space="preserve" xmlns:serif="http://www.serif.com/" style="fill-rule:evenodd;clip-rule:evenodd;stroke-linejoin:round;stroke-miterlimit:2;">
    <g transform="matrix(1.00072,0,0,1,-1.72085,0)">
        <g opacity="0.5">
            <path d="M34.145,40.653L34.145,76.034L66.538,56.062L34.145,40.653Z" style="fill:rgb(11,25,24);"/>
        </g>
    </g>
    <g transform="matrix(1.00072,0,0,1,-1.72085,0)">
        <g opacity="0.5">
            <path d="M1.752,62.483L34.145,82.455L34.145,110.097L1.752,62.483Z" style="fill:rgb(50,69,67);"/>
        </g>
    </g>
    <g transform="matrix(1.00072,0,0,1,-1.72085,0)">
        <g opacity="0.5">
            <path d="M34.145,110.097L66.538,62.483L34.145,82.421L34.145,110.097Z" style="fill:rgb(32,58,56);"/>
        </g>
    </g>
    <g transform="matrix(1.00072,0,0,1,-1.72085,0)">
        <g opacity="0.5">
            <path d="M1.72,56.029L34.145,0L34.145,40.653L1.72,56.029Z" style="fill:rgb(50,69,67);"/>
        </g>
    </g>
    <g transform="matrix(1.00072,0,0,1,-1.72085,0)">
        <g opacity="0.5">
            <path d="M34.145,0L34.145,40.653L66.538,56.062L34.145,0Z" style="fill:rgb(32,58,56);"/>
        </g>
    </g>
    <g transform="matrix(1.00072,0,0,1,-1.72085,0)">
        <g opacity="0.5">
            <path d="M1.72,56.062L34.145,76.034L34.145,40.653L1.72,56.062Z" style="fill:rgb(24,44,43);"/>
        </g>
    </g>
</svg>
