<?xml version="1.0" encoding="UTF-8" standalone="no"?>
<!DOCTYPE svg PUBLIC "-//W3C//DTD SVG 1.1//EN" "http://www.w3.org/Graphics/SVG/1.1/DTD/svg11.dtd">
<svg width="100%" height="100%" viewBox="0 0 80 80" version="1.1" xmlns="http://www.w3.org/2000/svg" xmlns:xlink="http://www.w3.org/1999/xlink" xml:space="preserve" xmlns:serif="http://www.serif.com/" style="fill-rule:evenodd;clip-rule:evenodd;stroke-linejoin:round;stroke-miterlimit:2;">
    <g transform="matrix(1,0,0,1,-460.01,-104.839)">
        <g transform="matrix(0.810486,0,0,0.810486,132.371,48.8874)">
            <path d="M457.658,69.401C454.951,69.177 452.231,69.177 449.524,69.401C448.978,70.354 448.526,71.35 448.168,72.389C445.314,72.724 442.498,73.322 439.754,74.177C439.005,73.374 438.187,72.648 437.3,71.999C434.737,72.896 432.252,74.002 429.87,75.308C429.759,76.4 429.751,77.494 429.847,78.588C427.376,80.055 425.046,81.748 422.888,83.644C421.876,83.216 420.834,82.885 419.76,82.653C417.783,84.514 415.962,86.536 414.318,88.697C414.661,89.741 415.099,90.743 415.631,91.704C413.97,94.049 412.53,96.543 411.33,99.153C410.232,99.173 409.145,99.295 408.069,99.52C407.02,102.025 406.18,104.612 405.556,107.255C406.294,108.069 407.102,108.806 407.978,109.468C407.415,112.285 407.114,115.149 407.079,118.023C406.084,118.487 405.141,119.041 404.25,119.683C404.31,122.398 404.595,125.104 405.1,127.772C406.105,128.215 407.143,128.561 408.213,128.808C408.844,131.611 409.734,134.35 410.871,136.989C410.151,137.819 409.514,138.708 408.962,139.657C410.121,142.113 411.481,144.469 413.028,146.701C414.127,146.697 415.215,146.59 416.294,146.381C418.011,148.685 419.938,150.825 422.05,152.774C421.729,153.824 421.509,154.896 421.39,155.988C423.448,157.76 425.649,159.359 427.97,160.769C428.972,160.318 429.923,159.778 430.823,159.148C433.329,160.555 435.96,161.726 438.682,162.647C438.816,163.737 439.051,164.805 439.387,165.851C441.988,166.633 444.649,167.199 447.342,167.542C448.074,166.723 448.724,165.843 449.29,164.902C452.151,165.168 455.031,165.168 457.892,164.902C458.458,165.843 459.107,166.723 459.839,167.542C462.533,167.199 465.194,166.633 467.795,165.851C468.13,164.805 468.365,163.737 468.5,162.647C471.222,161.726 473.852,160.555 476.358,159.148C477.258,159.778 478.209,160.318 479.211,160.769C481.532,159.359 483.733,157.76 485.791,155.988C485.672,154.896 485.453,153.824 485.132,152.774C487.244,150.825 489.171,148.685 490.888,146.381C491.966,146.59 493.055,146.697 494.153,146.701C495.7,144.469 497.06,142.113 498.22,139.657C497.667,138.708 497.031,137.819 496.31,136.989C497.447,134.35 498.337,131.611 498.969,128.808C500.039,128.561 501.076,128.215 502.082,127.772C502.587,125.104 502.871,122.398 502.932,119.683C502.041,119.041 501.098,118.487 500.102,118.023C500.067,115.149 499.766,112.285 499.203,109.468C500.08,108.806 500.887,108.069 501.625,107.255C501.002,104.612 500.161,102.025 499.112,99.52C498.037,99.295 496.95,99.173 495.852,99.153C494.651,96.543 493.211,94.049 491.551,91.704C492.083,90.743 492.52,89.741 492.864,88.697C491.219,86.536 489.399,84.514 487.421,82.653C486.348,82.885 485.305,83.216 484.294,83.644C482.135,81.748 479.806,80.055 477.335,78.588C477.43,77.494 477.422,76.4 477.311,75.308C474.93,74.002 472.445,72.896 469.881,71.999C468.995,72.648 468.177,73.374 467.427,74.177C464.684,73.322 461.867,72.724 459.013,72.389C458.655,71.35 458.203,70.354 457.658,69.401ZM453.591,97.329C465.323,97.329 474.848,106.854 474.848,118.586C474.848,130.319 465.323,139.844 453.591,139.844C441.858,139.844 432.333,130.319 432.333,118.586C432.333,106.854 441.858,97.329 453.591,97.329Z" style="fill:rgb(205,4,3);"/>
        </g>
        <g transform="matrix(0.556677,0,0,0.556677,212.34,67.5495)">
            <path d="M516.744,93.323C542.026,93.323 562.552,113.848 562.552,139.13C562.552,164.412 542.026,184.938 516.744,184.938C491.462,184.938 470.937,164.412 470.937,139.13C470.937,113.848 491.462,93.323 516.744,93.323ZM516.744,94.82C541.2,94.82 561.055,114.674 561.055,139.13C561.055,163.586 541.2,183.441 516.744,183.441C492.289,183.441 472.434,163.586 472.434,139.13C472.434,114.674 492.289,94.82 516.744,94.82Z" style="fill:rgb(16,25,33);"/>
        </g>
        <g transform="matrix(0.706041,0,0,0.706041,318.269,-113.992)">
            <circle cx="257.394" cy="366.823" r="32.576" style="fill:rgb(16,25,33);"/>
        </g>
        <g transform="matrix(0.98656,0,0,0.98656,26.7202,-283.707)">
            <path d="M479.728,414.275L484.506,427.971L499.008,428.283L487.459,437.059L491.643,450.948L479.728,442.677L467.812,450.948L471.996,437.059L460.447,428.283L474.949,427.971L479.728,414.275Z" style="fill:rgb(255,0,0);"/>
            <clipPath id="_clip1">
                <path d="M479.728,414.275L484.506,427.971L499.008,428.283L487.459,437.059L491.643,450.948L479.728,442.677L467.812,450.948L471.996,437.059L460.447,428.283L474.949,427.971L479.728,414.275Z"/>
            </clipPath>
            <g clip-path="url(#_clip1)">
                <g transform="matrix(1.06674,0,0,1.06674,-53.6402,279.597)">
                    <path d="M481.926,139.384L500,145.231L492.752,147.611L481.926,139.384Z" style="fill:rgb(205,3,3);"/>
                </g>
                <g transform="matrix(1.06674,0,0,1.06674,-53.6402,279.597)">
                    <path d="M500,152.877L500,145.231L488.83,160.631L500,152.877Z" style="fill:rgb(205,3,3);"/>
                </g>
                <g transform="matrix(1.06674,0,0,1.06674,-53.6402,279.597)">
                    <path d="M500,126.252L500,145.231L504.479,139.091L500,126.252Z" style="fill:rgb(205,3,3);"/>
                </g>
                <g transform="matrix(1.06674,0,0,1.06674,-53.6402,279.597)">
                    <path d="M518.074,139.384L500,145.231L507.248,147.611L518.074,139.384Z" style="fill:rgb(205,3,3);"/>
                </g>
                <g transform="matrix(1.06674,0,0,1.06674,-53.6402,279.597)">
                    <path d="M500,145.231L511.17,160.631L500,152.877" style="fill:rgb(205,4,3);"/>
                </g>
            </g>
        </g>
    </g>
</svg>
